<?xml version="1.0" encoding="UTF-8"?>
<svg width="20px" height="20px" viewBox="0 0 20 20" version="1.1" xmlns="http://www.w3.org/2000/svg" xmlns:xlink="http://www.w3.org/1999/xlink">
    <!-- Generator: Sketch 46.2 (44496) - http://www.bohemiancoding.com/sketch -->
    <title>Combined Shape</title>
    <desc>Created with Sketch.</desc>
    <defs></defs>
    <g>
        <path d="M19,0 C19.5522847,-1.01453063e-16 20,0.44771525 20,1 L20,15 C20,15.5522847 19.5522847,16 19,16 L11,16 L11,18 L14.5,18 C14.7761424,18 15,18.2238576 15,18.5 L15,19.5 C15,19.7761424 14.7761424,20 14.5,20 L5.5,20 C5.22385763,20 5,19.7761424 5,19.5 L5,18.5 C5,18.2238576 5.22385763,18 5.5,18 L9,18 L9,16 L1,16 C0.44771525,16 6.76353751e-17,15.5522847 0,15 L0,1 C-6.76353751e-17,0.44771525 0.44771525,1.01453063e-16 1,0 L19,0 Z M17.5,2 L2.5,2 C2.25454011,2 2.05039163,2.17687516 2.00805567,2.41012437 L2,2.5 L2,13.5 C2,13.7454599 2.17687516,13.9496084 2.41012437,13.9919443 L2.5,14 L17.5,14 C17.7454599,14 17.9496084,13.8231248 17.9919443,13.5898756 L18,13.5 L18,2.5 C18,2.22385763 17.7761424,2 17.5,2 Z M14,4 C15.1045695,4 16,4.8954305 16,6 C16,7.1045695 15.1045695,8 14,8 C13.6943355,8 13.4046864,7.93142974 13.1455962,7.80883257 L9.95487872,11.8263773 L7.229,8.072 L5.43333007,10.8627291 L4.59239954,10.321586 L7.17870311,6.30249815 L9.99,10.173 L12.3763588,7.1680689 C12.1395235,6.8394411 12,6.43601428 12,6 C12,4.8954305 12.8954305,4 14,4 Z M14,5 C13.4477153,5 13,5.44771525 13,6 C13,6.55228475 13.4477153,7 14,7 C14.5522847,7 15,6.55228475 15,6 C15,5.44771525 14.5522847,5 14,5 Z" fill="#7F86A5"></path>
    </g>
</svg>